/vscmnt/brussel_pixiu_data/_data_brussel/112/vsc11236/PredSimResults/SUBJ09mtu3D/weighted-trackIG/worker_02.mot
version=1
nRows=9
nColumns=50
inDegrees=yes
endheader
                time	         pelvis_tilt	         pelvis_list	     pelvis_rotation	           pelvis_tx	           pelvis_ty	           pelvis_tz	       hip_flexion_r	     hip_adduction_r	      hip_rotation_r	        knee_angle_r	       ankle_angle_r	         mtp_angle_r	       hip_flexion_l	     hip_adduction_l	      hip_rotation_l	        knee_angle_l	       ankle_angle_l	         mtp_angle_l	    lumbar_extension	      lumbar_bending	     lumbar_rotation	 ercspn_r/activation	 intobl_r/activation	 extobl_r/activation	    abd_r/activation	    add_r/activation	hamstrings_r/activation	bifemsh_r/activation	glut_max_r/activation	iliopsoas_r/activation	rect_fem_r/activation	  vasti_r/activation	gastroc_r/activation	 soleus_r/activation	tib_ant_r/activation	 ercspn_l/activation	 intobl_l/activation	 extobl_l/activation	    abd_l/activation	    add_l/activation	hamstrings_l/activation	bifemsh_l/activation	glut_max_l/activation	iliopsoas_l/activation	rect_fem_l/activation	  vasti_l/activation	gastroc_l/activation	 soleus_l/activation	tib_ant_l/activation	
          0.64130801	         -7.82500584	          4.77842506	         -7.56461690	          0.75033037	          0.98185900	          0.01229708	        -10.30287588	         -5.02540152	          5.32722990	         -7.08668106	         10.64720083	         27.57576250	         31.31438287	          1.59172544	         -5.08700752	         -2.16343933	          6.56042037	          0.21440702	         -0.29247356	         -3.20576651	          3.65092439	          0.04261947	          0.00999999	          0.00999999	          0.05337705	          0.00999999	          0.02448837	          0.12896156	          0.04479451	          0.45615486	          0.01000000	          0.01000000	          0.32538223	          0.27787487	          0.01473235	          0.09130280	          0.12921061	          0.03197544	          0.01775590	          0.07534959	          0.11285902	          0.21477770	          0.00999999	          0.10224294	          0.00999999	          0.00999999	          0.01214048	          0.00999999	          0.26767062	
          0.65413417	         -7.91321440	          4.70268528	         -7.56941862	          0.76856706	          0.97973927	          0.01203111	        -10.49454617	         -4.97266805	          4.95476300	         -8.54794987	          9.96088899	         29.59115578	         31.36550474	          1.68431865	         -4.93880711	         -3.77532448	          6.12142125	          0.21479051	          0.00855745	         -3.51021976	          3.75913203	          0.08119469	          0.00999999	          0.00999999	          0.04397628	          0.03606609	          0.02158068	          0.10624882	          0.03690529	          0.45777456	          0.00999999	          0.01073389	          0.29872208	          0.25957657	          0.01213768	          0.07522253	          0.10645401	          0.02634392	          0.01462873	          0.11008549	          0.09743766	          0.17695100	          0.07670986	          0.08423589	          0.00999999	          0.00999999	          0.02271722	          0.01574585	          0.28151672	
          0.66696033	         -7.98071431	          4.62354170	         -7.52446812	          0.78719557	          0.97787804	          0.01169413	        -10.53131885	         -4.90419510	          4.55633040	        -10.35934646	          9.11684153	         31.66710465	         31.22487530	          1.76466631	         -4.78330889	         -5.28451978	          5.63142376	          0.20177243	          0.32846300	         -3.82212190	          3.83570906	          0.08094406	          0.00999999	          0.00999999	          0.03623116	          0.02971412	          0.01829613	          0.08753625	          0.03040553	          0.44160862	          0.01000000	          0.01473235	          0.25668899	          0.22888356	          0.00999999	          0.06622456	          0.08770530	          0.02170422	          0.07693737	          0.09559286	          0.08674014	          0.14578636	          0.11801771	          0.06940025	          0.00999999	          0.00999999	          0.01871625	          0.01297268	          0.33424165	
          0.67978649	         -8.03072303	          4.53612950	         -7.43106027	          0.80587658	          0.97653829	          0.01126675	        -10.30999490	         -4.81146631	          4.14409261	        -12.64797185	          8.06538277	         33.74871193	         30.93525799	          1.85457722	         -4.65387310	         -6.52621286	          4.97507618	          0.17735140	          0.63198142	         -4.13392129	          3.87667524	          0.11449758	          0.00999999	          0.00999999	          0.02985012	          0.03679005	          0.01947504	          0.07211935	          0.02505050	          0.41912286	          0.00999999	          0.01213768	          0.21148087	          0.18857253	          0.00999999	          0.06946677	          0.07225862	          0.01788167	          0.13004677	          0.11442452	          0.07325593	          0.12011043	          0.16552423	          0.05717746	          0.00999999	          0.00999999	          0.01541994	          0.01068793	          0.36762928	
          0.69261265	         -8.06259760	          4.44776989	         -7.29346446	          0.82433683	          0.97588705	          0.01075940	         -9.75161390	         -4.70074864	          3.72283619	        -15.51503317	          6.79908713	         35.67259162	         30.59180376	          1.96217357	         -4.53271168	         -7.71526504	          4.48661960	          0.14794971	          0.89485329	         -4.45455752	          3.88079117	          0.14241301	          0.00999999	          0.00999999	          0.02459291	          0.05483438	          0.01990346	          0.05941767	          0.02063860	          0.37651332	          0.00999999	          0.00999999	          0.17423481	          0.15536109	          0.00999999	          0.06823281	          0.05953242	          0.01473235	          0.16015720	          0.12319802	          0.06195091	          0.09895655	          0.19139899	          0.04710735	          0.00999999	          0.02953904	          0.01270418	          0.00999999	          0.39194491	
          0.70543881	         -8.07576685	          4.35393642	         -7.11360226	          0.84241613	          0.97599037	          0.01019382	         -8.82857621	         -4.57083841	          3.29018693	        -18.97581997	          5.33868830	         37.12413395	         30.21355181	          2.07932063	         -4.40781778	         -8.87417618	          4.19798379	          0.12523295	          1.10455122	         -4.77892274	          3.84647809	          0.15889388	          0.00999999	          0.00999999	          0.02026160	          0.07182360	          0.01788166	          0.04895302	          0.01700372	          0.31020171	          0.00999999	          0.00999999	          0.14354853	          0.12799886	          0.00999999	          0.05986517	          0.04904756	          0.01213768	          0.16784802	          0.10150036	          0.05497754	          0.08152830	          0.19494392	          0.03881079	          0.00999999	          0.10008626	          0.01046672	          0.00999999	          0.39821111	
          0.71826497	         -8.07178494	          4.24085887	         -6.89386743	          0.86004359	          0.97690676	          0.00960656	         -7.56196823	         -4.41609408	          2.83887852	        -22.96351119	          3.75935880	         37.62273002	         29.74296150	          2.19350377	         -4.26069207	         -9.88047362	          4.06670263	          0.10391662	          1.25734408	         -5.09163757	          3.77429194	          0.17199309	          0.00999999	          0.00999999	          0.01669312	          0.08487352	          0.01473234	          0.06078732	          0.01400902	          0.25556891	          0.00999999	          0.00999999	          0.11826673	          0.10545567	          0.00999999	          0.04932170	          0.04040929	          0.00999999	          0.16448083	          0.08362409	          0.05116551	          0.06716952	          0.18431492	          0.03197543	          0.00999999	          0.16105205	          0.01000000	          0.01000000	          0.39427801	
          0.73109113	         -8.05313375	          4.09501681	         -6.63350202	          0.87722119	          0.97863456	          0.00903031	         -6.00009231	         -4.23028337	          2.38057825	        -27.33983328	          1.97673861	         37.05931109	         29.11567416	          2.29395044	         -4.07244274	        -10.61800497	          4.08628025	          0.08997040	          1.35715333	         -5.37736555	          3.66292050	          0.17219712	          0.00999999	          0.00999999	          0.01375313	          0.10040149	          0.01213768	          0.06769972	          0.01154175	          0.21055806	          0.00999999	          0.00999999	          0.09743757	          0.08688280	          0.02903707	          0.04063515	          0.03329240	          0.00999999	          0.15778613	          0.06889620	          0.04831183	          0.05533961	          0.16480116	          0.02634391	          0.00999999	          0.19564502	          0.00999999	          0.00999999	          0.38135176	
          0.74391729	         -8.02217848	          3.90383755	         -6.33224322	          0.89395449	          0.98104256	          0.00849540	         -4.20385513	         -4.00164380	          1.93933377	        -31.96192554	          0.09099651	         35.18670799	         28.30986225	          2.36643805	         -3.82272938	        -11.03924975	          4.20723340	          0.08391985	          1.40627782	         -5.62241379	          3.51181985	          0.17309017	          0.00999999	          0.03607458	          0.01133092	          0.10296602	          0.01000000	          0.05577643	          0.00999999	          0.17347452	          0.00999999	          0.00999999	          0.08027684	          0.07158098	          0.08949804	          0.03347848	          0.02742893	          0.00999999	          0.15290456	          0.05676218	          0.04507347	          0.04559318	          0.13577634	          0.02170421	          0.00999999	          0.19769174	          0.00999999	          0.00999999	          0.36287993	
